<?xml version="1.0"?>
<svg xmlns="http://www.w3.org/2000/svg" width="512px" height="512px" viewBox="0 0 512 512"><g transform="matrix(1.02999 0 0 1.02999 -7.67793 -12.8279)"><g><path d="M464,80H316.33a87.827,87.827,0,0,0-120.66,0H48A40.04,40.04,0,0,0,8,120V344a40.04,40.04,0,0,0,40,40H204.68l-11.33,32H160a8,8,0,0,0-8,8v24a8,8,0,0,0,8,8H352a8,8,0,0,0,8-8V424a8,8,0,0,0-8-8H317.65l-11.33-32H464a40.04,40.04,0,0,0,40-40V120A40.04,40.04,0,0,0,464,80ZM256,72a72,72,0,1,1-72,72A72.083,72.083,0,0,1,256,72Zm88,360v8H168v-8ZM210.32,416l11.33-32h67.7l11.33,32ZM488,344a24.032,24.032,0,0,1-24,24H48a24.032,24.032,0,0,1-24-24v-8H488Zm0-24H24V120A24.032,24.032,0,0,1,48,96H182.28a88,88,0,1,0,147.44,0H464a24.032,24.032,0,0,1,24,24Z" data-original="#000000" class="active-path" data-old_color="#000000" fill="#007BFF"/><path d="M104,344H48a8,8,0,0,0,0,16h56a8,8,0,0,0,0-16Z" data-original="#000000" class="active-path" data-old_color="#000000" fill="#007BFF"/><path d="M136,344h-8a8,8,0,0,0,0,16h8a8,8,0,0,0,0-16Z" data-original="#000000" class="active-path" data-old_color="#000000" fill="#007BFF"/><path d="M218.667,184h74.666a8,8,0,0,0,8-8V165.333a39.9,39.9,0,0,0-19.4-34.313,29.333,29.333,0,1,0-51.868,0,39.9,39.9,0,0,0-19.4,34.313V176A8,8,0,0,0,218.667,184ZM256,104a13.334,13.334,0,1,1-13.333,13.333A13.348,13.348,0,0,1,256,104Zm-29.333,61.333a23.911,23.911,0,0,1,15.187-22.312,29.265,29.265,0,0,0,28.292,0,23.911,23.911,0,0,1,15.187,22.312V168H226.667Z" data-original="#000000" class="active-path" data-old_color="#000000" fill="#007BFF"/><path d="M160,264H352a8,8,0,0,0,0-16H160a8,8,0,0,0,0,16Z" data-original="#000000" class="active-path" data-old_color="#000000" fill="#007BFF"/><path d="M304,280H208a8,8,0,0,0,0,16h96a8,8,0,0,0,0-16Z" data-original="#000000" class="active-path" data-old_color="#000000" fill="#007BFF"/></g></g> </svg>
